<svg xmlns="http://www.w3.org/2000/svg" width="5.749" height="10.633" viewBox="0 0 5.749 10.633"><defs><style>.a{fill:#fff;}</style></defs><path class="a" d="M27.609,0,26.23,0a2.421,2.421,0,0,0-2.55,2.617V3.823H22.294a.217.217,0,0,0-.217.217V5.788a.217.217,0,0,0,.217.217H23.68v4.411a.217.217,0,0,0,.217.217h1.809a.217.217,0,0,0,.217-.217V6.005h1.621a.217.217,0,0,0,.217-.217V4.04a.217.217,0,0,0-.217-.217H25.923V2.8c0-.492.117-.741.758-.741h.929a.217.217,0,0,0,.217-.217V.219A.217.217,0,0,0,27.609,0Z" transform="translate(-22.077)"/></svg>