<svg xmlns="http://www.w3.org/2000/svg" width="10.633" height="10.633" viewBox="0 0 10.633 10.633"><defs><style>.a{fill:#fff;}</style></defs><path class="a" d="M1.246,393.513a1.265,1.265,0,0,0,1.267-1.246A1.283,1.283,0,0,0,1.246,391,1.265,1.265,0,0,0,0,392.267,1.247,1.247,0,0,0,1.246,393.513Zm0,0" transform="translate(0 -382.88)"/><path class="a" d="M.312,241.246H.935A3.5,3.5,0,0,1,4.4,244.714v.623a.311.311,0,0,0,.312.311h.623a.311.311,0,0,0,.312-.311v-.623A4.744,4.744,0,0,0,.935,240H.312a.311.311,0,0,0-.312.312v.623A.311.311,0,0,0,.312,241.246Zm0,0" transform="translate(0 -235.016)"/><path class="a" d="M.312,121.246H.935a5.99,5.99,0,0,1,5.96,5.96v.623a.311.311,0,0,0,.312.312h.623a.311.311,0,0,0,.312-.312v-.623A7.236,7.236,0,0,0,.935,120H.312a.311.311,0,0,0-.312.312v.623A.311.311,0,0,0,.312,121.246Zm0,0" transform="translate(0 -117.508)"/><path class="a" d="M.935,0H.312A.311.311,0,0,0,0,.312V.935a.311.311,0,0,0,.312.312H.935A8.482,8.482,0,0,1,9.387,9.7v.623a.311.311,0,0,0,.312.312h.623a.311.311,0,0,0,.312-.312V9.7A9.728,9.728,0,0,0,.935,0Zm0,0"/></svg>