<svg xmlns="http://www.w3.org/2000/svg" width="18.945" height="15.51" viewBox="0 0 18.945 15.51"><defs><style>.a{fill:#f7941d;}</style></defs><path class="a" d="M18.513,29.887a7.182,7.182,0,0,1-.916.334,4.05,4.05,0,0,0,.825-1.45.306.306,0,0,0-.447-.356,7.211,7.211,0,0,1-2.131.842A4.069,4.069,0,0,0,8.93,32.164a4.148,4.148,0,0,0,.033.525A10.412,10.412,0,0,1,1.817,28.9a.306.306,0,0,0-.5.039,4.073,4.073,0,0,0,.417,4.681,3.445,3.445,0,0,1-.544-.243.306.306,0,0,0-.454.26c0,.018,0,.036,0,.054a4.081,4.081,0,0,0,1.991,3.5c-.1-.01-.207-.025-.309-.045a.306.306,0,0,0-.348.393,4.065,4.065,0,0,0,2.979,2.726,7.2,7.2,0,0,1-3.846,1.1,7.358,7.358,0,0,1-.861-.05.306.306,0,0,0-.2.561,10.967,10.967,0,0,0,5.931,1.738,10.551,10.551,0,0,0,8.174-3.59A11.38,11.38,0,0,0,17.076,32.6c0-.112,0-.224-.005-.337a7.906,7.906,0,0,0,1.819-1.927.306.306,0,0,0-.378-.449Z" transform="translate(0.002 -28.097)"/></svg>